<?xml version="1.0" encoding="UTF-8"?>
<!DOCTYPE svg PUBLIC "-//W3C//DTD SVG 1.1//EN" "http://www.w3.org/Graphics/SVG/1.1/DTD/svg11.dtd">
<svg version="1.1" xmlns="http://www.w3.org/2000/svg" xmlns:xlink="http://www.w3.org/1999/xlink" x="0" y="0" width="406" height="1083" viewBox="0, 0, 406, 1083">
  <g id="Layer_1">
    <path d="M358.015,224.148 C404.178,211.073 401.178,137.538 348.686,138.671 C285.15,78.357 173.816,117.12 195.434,232.369 C205.536,241.568 220.658,308.938 218.974,318.615 C218.497,321.34 236.454,310.802 237.833,309.133 C237.808,310.772 239.334,313.311 239.422,314.991 C257.643,308.63 258.887,284.981 271.601,273.257 C276.083,269.135 281.515,266.355 285.387,261.555 C288.265,257.978 289.297,252.608 291.445,249.192 C299.369,236.6 305.452,233.195 321.396,231.252 C332.759,229.875 345.842,227.6 358.015,224.148" fill="#9E574D"/>
    <path d="M358.015,224.148 C404.178,211.073 401.178,137.538 348.686,138.671 C285.15,78.357 173.816,117.12 195.434,232.369 C205.536,241.568 220.658,308.938 218.974,318.615 C218.497,321.34 236.454,310.802 237.833,309.133 C237.808,310.772 239.334,313.311 239.422,314.991 C257.643,308.63 258.887,284.981 271.601,273.257 C276.083,269.135 281.515,266.355 285.387,261.555 C288.265,257.978 289.297,252.608 291.445,249.192 C299.369,236.6 305.452,233.195 321.396,231.252 C332.759,229.875 345.842,227.6 358.015,224.148 z" fill-opacity="0" stroke="#1A1919" stroke-width="2.829" stroke-linecap="round" stroke-linejoin="round"/>
    <path d="M289.04,291.571 C300.703,292.095 309.925,312.728 313.568,325.584 C316.041,334.256 324.602,366.904 313.878,369.431 C299.924,372.72 269.197,331.99 260.167,320.892 C255.325,314.937 256.032,303.467 260.51,297.724 C266.9,289.53 279.679,291.132 289.04,291.571" fill="#F8D2B8"/>
    <path d="M289.04,291.571 C300.703,292.095 309.925,312.728 313.568,325.584 C316.041,334.256 324.602,366.904 313.878,369.431 C299.924,372.72 269.197,331.99 260.167,320.892 C255.325,314.937 256.032,303.467 260.51,297.724 C266.9,289.53 279.679,291.132 289.04,291.571 z" fill-opacity="0" stroke="#1A1919" stroke-width="2.829" stroke-linecap="round" stroke-linejoin="round"/>
    <path d="M304.326,408.424 C311.295,406.08 313.679,384.049 317.463,377.984 C320.117,373.729 324.661,369.444 326.368,364.763 C330.137,354.432 327.949,342.986 318.389,337.224 C313.783,334.455 312.085,332.479 298.384,337.901 C284.181,332.144 268.551,327.561 266.574,344.933 C265.641,353.167 271.647,362.35 275.81,369.236 C279.127,374.776 282.379,379.948 285.238,385.751 C288.562,392.539 296.305,411.12 304.326,408.424" fill="#FFFFFE"/>
    <path d="M304.326,408.424 C311.295,406.08 313.679,384.049 317.463,377.984 C320.117,373.729 324.661,369.444 326.368,364.763 C330.137,354.432 327.949,342.986 318.389,337.224 C313.783,334.455 312.085,332.479 298.384,337.901 C284.181,332.144 268.551,327.561 266.574,344.933 C265.641,353.167 271.647,362.35 275.81,369.236 C279.127,374.776 282.379,379.948 285.238,385.751 C288.562,392.539 296.305,411.12 304.326,408.424 z" fill-opacity="0" stroke="#1A1919" stroke-width="2.829" stroke-linecap="round" stroke-linejoin="round"/>
    <path d="M357.529,438.827 C349.269,444.894 352.304,461.639 357.771,470.505 C368.339,487.599 386.548,487.812 391.679,474.631 C396.19,463.069 358.718,448.583 354.754,447.709 C346.9,445.964 361.307,436.055 357.529,438.827" fill="#DBA491"/>
    <path d="M357.529,438.827 C349.269,444.894 352.304,461.639 357.771,470.505 C368.339,487.599 386.548,487.812 391.679,474.631 C396.19,463.069 358.718,448.583 354.754,447.709 C346.9,445.964 361.307,436.055 357.529,438.827 z" fill-opacity="0" stroke="#1A1919" stroke-width="2.829" stroke-linecap="round" stroke-linejoin="round"/>
    <path d="M358.857,451.07 C361.97,466.827 385.758,472.802 390.157,462.201 C395.276,449.841 355.829,435.754 358.857,451.07" fill="#E1E2E0"/>
    <path d="M358.857,451.07 C361.97,466.827 385.758,472.802 390.157,462.201 C395.276,449.841 355.829,435.754 358.857,451.07 z" fill-opacity="0" stroke="#1A1919" stroke-width="2.829" stroke-linecap="round" stroke-linejoin="round"/>
    <path d="M91.363,630.938 C95.782,623.426 113.005,609.141 103.607,603.385 C100.293,601.363 84.918,593.875 78.875,592.555 C74.62,593.76 72.635,595.877 72.148,599.289 C81.856,608.463 85.53,611.442 77.858,627.922 C73.718,636.821 67.934,646.393 58.787,651.253 C41.699,660.367 31.277,670.193 27.397,691.232 C25.505,701.443 25.746,725.96 31.828,726.02 C41.596,726.154 57.573,704.801 62.165,693.622 C70.984,672.059 79.893,650.451 91.363,630.938" fill="#B5665A"/>
    <path d="M91.363,630.938 C95.782,623.426 113.005,609.141 103.607,603.385 C100.293,601.363 84.918,593.875 78.875,592.555 C74.62,593.76 72.635,595.877 72.148,599.289 C81.856,608.463 85.53,611.442 77.858,627.922 C73.718,636.821 67.934,646.393 58.787,651.253 C41.699,660.367 31.277,670.193 27.397,691.232 C25.505,701.443 25.746,725.96 31.828,726.02 C41.596,726.154 57.573,704.801 62.165,693.622 C70.984,672.059 79.893,650.451 91.363,630.938 z" fill-opacity="0" stroke="#1A1919" stroke-width="2.829" stroke-linecap="round" stroke-linejoin="round"/>
    <path d="M73.547,633.462 C69.187,643.32 46.125,655.112 39.773,669.036 C33.547,682.63 30.945,709.019 34.33,719.867 C39.004,734.807 73.71,687.991 79.953,682.262 C89.352,673.611 98.462,661.903 106.654,652.204 C113.987,643.558 132.746,646.639 127.55,630.384 C124.2,619.84 113.049,608.156 104.232,604.021 C99.404,601.777 86.197,610.176 82.869,614.941 C78.553,621.108 77.879,623.695 73.547,633.462" fill="#EC9477"/>
    <path d="M73.547,633.462 C69.187,643.32 46.125,655.112 39.773,669.036 C33.547,682.63 30.945,709.019 34.33,719.867 C39.004,734.807 73.71,687.991 79.953,682.262 C89.352,673.611 98.462,661.903 106.654,652.204 C113.987,643.558 132.746,646.639 127.55,630.384 C124.2,619.84 113.049,608.156 104.232,604.021 C99.404,601.777 86.197,610.176 82.869,614.941 C78.553,621.108 77.879,623.695 73.547,633.462 z" fill-opacity="0" stroke="#1A1919" stroke-width="2.829" stroke-linecap="round" stroke-linejoin="round"/>
    <g>
      <path d="M329.237,1044.17 C337.292,1046.24 360.243,1071.14 353.763,1078.18 C348.676,1083.73 327.756,1081.58 320.326,1078.18 C299.42,1068.63 299.711,1062.56 293.572,1045.84 C289.994,1036.1 292.271,1015.62 280.157,1012.02 C268.607,1008.57 270.159,1021.87 269.042,1029.69 C265.141,1033.03 261.231,1034.14 257.885,1028 C256.404,1016.94 251.935,979.959 257.169,975.551 C267.177,967.16 296.09,998.852 305.868,1003.16 C319.423,1009.13 309.103,1029.44 322.907,1034.87 C335.884,1039.98 315.265,1040.61 329.237,1044.17" fill="#B5665A"/>
      <path d="M329.237,1044.17 C337.292,1046.24 360.243,1071.14 353.763,1078.18 C348.676,1083.73 327.756,1081.58 320.326,1078.18 C299.42,1068.63 299.711,1062.56 293.572,1045.84 C289.994,1036.1 292.271,1015.62 280.157,1012.02 C268.607,1008.57 270.159,1021.87 269.042,1029.69 C265.141,1033.03 261.231,1034.14 257.885,1028 C256.404,1016.94 251.935,979.959 257.169,975.551 C267.177,967.16 296.09,998.852 305.868,1003.16 C319.423,1009.13 309.103,1029.44 322.907,1034.87 C335.884,1039.98 315.265,1040.61 329.237,1044.17 z" fill-opacity="0" stroke="#1A1919" stroke-width="2.829" stroke-linecap="round" stroke-linejoin="round"/>
    </g>
    <path d="M297.475,981.195 C299.807,994.856 295.667,991.918 314.924,1009.94 C318.974,1013.74 359.259,1071.5 353.763,1074.83 C343.787,1080.92 317.902,1076.46 299.711,1055.32 C292.271,1046.69 287.619,1029.43 276.72,1021.07 C271.428,1017.02 266.08,1011.85 260.314,1008.47 C252.25,1003.76 253.311,997.799 253.436,987.859 C253.51,981.172 256.664,969.529 269.143,962.219 C281.772,954.85 295.781,971.172 297.475,981.195" fill="#EC9477"/>
    <path d="M297.475,981.195 C299.807,994.856 295.667,991.918 314.924,1009.94 C318.974,1013.74 359.259,1071.5 353.763,1074.83 C343.787,1080.92 317.902,1076.46 299.711,1055.32 C292.271,1046.69 287.619,1029.43 276.72,1021.07 C271.428,1017.02 266.08,1011.85 260.314,1008.47 C252.25,1003.76 253.311,997.799 253.436,987.859 C253.51,981.172 256.664,969.529 269.143,962.219 C281.772,954.85 295.781,971.172 297.475,981.195 z" fill-opacity="0" stroke="#1A1919" stroke-width="2.829" stroke-linecap="round" stroke-linejoin="round"/>
    <path d="M267.633,615.865 C278.425,579.885 326.911,699.711 326.677,719.619 C326.381,744.434 324.463,783.369 322.419,799.018 C319.464,821.467 316.667,842.568 315.122,855.175 C312.1,880.008 298.037,956.088 300.259,967.24 C303.657,984.289 315.744,1009.15 320.603,1019.95 C300.658,1026.34 279.867,999.611 268.886,983.342 C261.386,972.195 267.248,965.086 273.499,954.99 C278.255,947.316 265.33,888.462 263.834,870.615 C261.123,838.36 263.834,827.518 269.782,805.209 C276.597,779.664 260.154,751.596 259.384,724.951 C258.417,691.328 257.695,648.902 267.633,615.865" fill="#F8D2B8"/>
    <path d="M267.633,615.865 C278.425,579.885 326.911,699.711 326.677,719.619 C326.381,744.434 324.463,783.369 322.419,799.018 C319.464,821.467 316.667,842.568 315.122,855.175 C312.1,880.008 298.037,956.088 300.259,967.24 C303.657,984.289 315.744,1009.15 320.603,1019.95 C300.658,1026.34 279.867,999.611 268.886,983.342 C261.386,972.195 267.248,965.086 273.499,954.99 C278.255,947.316 265.33,888.462 263.834,870.615 C261.123,838.36 263.834,827.518 269.782,805.209 C276.597,779.664 260.154,751.596 259.384,724.951 C258.417,691.328 257.695,648.902 267.633,615.865 z" fill-opacity="0" stroke="#1A1919" stroke-width="2.829" stroke-linecap="round" stroke-linejoin="round"/>
    <path d="M222.18,715.906 C231.438,706.179 268.336,611.03 283.966,622.608 C293.979,630.045 283.98,653.761 284.694,664.503 C285.931,683.5 302.934,769.099 293.603,787.505 C283.205,808.011 262.862,804.111 247.58,795.628 C227.601,784.598 152.455,700.268 142.079,690.121 C128.43,676.721 122.395,665.809 105.07,672.277 C94.835,676.113 81.739,682.547 72.586,688.028 C67.823,668.148 94.803,637.674 108.051,628.876 C126.377,616.694 130.016,647.659 139.265,654.077 C171.387,676.389 204.371,681.834 222.18,715.906" fill="#F8D2B8"/>
    <path d="M222.18,715.906 C231.438,706.179 268.336,611.03 283.966,622.608 C293.979,630.045 283.98,653.761 284.694,664.503 C285.931,683.5 302.934,769.099 293.603,787.505 C283.205,808.011 262.862,804.111 247.58,795.628 C227.601,784.598 152.455,700.268 142.079,690.121 C128.43,676.721 122.395,665.809 105.07,672.277 C94.835,676.113 81.739,682.547 72.586,688.028 C67.823,668.148 94.803,637.674 108.051,628.876 C126.377,616.694 130.016,647.659 139.265,654.077 C171.387,676.389 204.371,681.834 222.18,715.906 z M234.43,752.029 C226.067,740.747 210.182,699.594 207.916,685.922" fill-opacity="0" stroke="#1A1919" stroke-width="2.829" stroke-linecap="round" stroke-linejoin="round"/>
    <g>
      <path d="M341.457,411.668 C341.076,404.076 345.274,407.77 344.086,402.059 C342.513,394.596 343.83,390.91 348.085,383.491 C355.644,373.24 364.461,361.593 368.152,365.118 C372.265,369.046 372.473,373.151 370.472,378.384 C378.041,385.48 384.562,384.902 387.446,389.286 C394.814,400.589 403.377,396.145 404.046,408.577 C404.481,416.557 402.341,426.77 398.785,433.334 C396.277,437.977 387.87,447.249 376.239,449.609 C371.982,460.325 366.759,483.445 362.543,489.17 C355.353,501.025 345.28,473.117 342.609,473.203 C335.653,473.447 341.754,417.941 341.457,411.668" fill="#F8D2B8"/>
      <path d="M341.457,411.668 C341.076,404.076 345.274,407.77 344.086,402.059 C342.513,394.596 343.83,390.91 348.085,383.491 C355.644,373.24 364.461,361.593 368.152,365.118 C372.265,369.046 372.473,373.151 370.472,378.384 C378.041,385.48 384.562,384.902 387.446,389.286 C394.814,400.589 403.377,396.145 404.046,408.577 C404.481,416.557 402.341,426.77 398.785,433.334 C396.277,437.977 387.87,447.249 376.239,449.609 C371.982,460.325 366.759,483.445 362.543,489.17 C355.353,501.025 345.28,473.117 342.609,473.203 C335.653,473.447 341.754,417.941 341.457,411.668 z M365.347,392.398 C373.545,403.009 381.128,416.197 379.024,425.652" fill-opacity="0" stroke="#1A1919" stroke-width="2.829" stroke-linecap="round" stroke-linejoin="round"/>
      <path d="M399.846,414.327 C406.755,407.595 404.194,402.059 400.058,396.937 C396,391.894 377.827,408.418 385.729,417.454 C388.76,420.923 393.144,420.845 399.846,414.327" fill="#F8D2B8"/>
      <path d="M399.846,414.327 C406.755,407.595 404.194,402.059 400.058,396.937 C396,391.894 377.827,408.418 385.729,417.454 C388.76,420.923 393.144,420.845 399.846,414.327 z" fill-opacity="0" stroke="#1A1919" stroke-width="2.829" stroke-linecap="round" stroke-linejoin="round"/>
    </g>
    <path d="M373.848,484.164 C373.848,484.164 380.536,474.516 389.328,463.002 C361.961,467.654 354.881,438.609 348.441,422.808 C342.764,432.457 337.409,441.216 337.409,441.216 L373.848,484.164" fill="#FFFFFE"/>
    <path d="M373.848,484.164 C373.848,484.164 380.536,474.516 389.328,463.002 C361.961,467.654 354.881,438.609 348.441,422.808 C342.764,432.457 337.409,441.216 337.409,441.216 L373.848,484.164 z" fill-opacity="0" stroke="#1A1919" stroke-width="2.829" stroke-linecap="round" stroke-linejoin="round"/>
    <path d="M339.705,423.534 C346.353,450.725 361.21,464.839 367.902,470.047 C374.371,475.084 384.997,479.719 391.694,473.804 C378.188,495.992 367.814,513.443 364.68,518.165 C356.463,530.482 321.545,561.904 307.977,553.072 C302.559,549.526 319.406,497.486 312.347,497.658 C306.726,497.829 335.788,407.513 339.705,423.534" fill="#F2B39E"/>
    <path d="M339.705,423.534 C346.353,450.725 361.21,464.839 367.902,470.047 C374.371,475.084 384.997,479.719 391.694,473.804 C378.188,495.992 367.814,513.443 364.68,518.165 C356.463,530.482 321.545,561.904 307.977,553.072 C302.559,549.526 319.406,497.486 312.347,497.658 C306.726,497.829 335.788,407.513 339.705,423.534 z" fill-opacity="0" stroke="#1A1919" stroke-width="2.829" stroke-linecap="round" stroke-linejoin="round"/>
    <path d="M265.741,472.748 C290.615,473.075 296.695,476.025 308.146,500.945 C317.835,522.076 325.841,583.064 332.944,610.467 C338.26,630.914 363.405,705.615 361.495,715.074 C371.115,740.026 223.757,744.861 200.933,716.484 C199.527,696.18 180.986,654.563 170.078,632.1 C156.722,604.518 152.042,583.473 163.558,555.066 C173.164,531.371 191.376,513.295 199.404,493.439 C205.53,478.292 203.057,495.247 216.137,485.511 C230.719,474.645 247.397,472.498 265.741,472.748" fill="#F2B39E"/>
    <path d="M265.741,472.748 C290.615,473.075 296.695,476.025 308.146,500.945 C317.835,522.076 325.841,583.064 332.944,610.467 C338.26,630.914 363.405,705.615 361.495,715.074 C371.115,740.026 223.757,744.861 200.933,716.484 C199.527,696.18 180.986,654.563 170.078,632.1 C156.722,604.518 152.042,583.473 163.558,555.066 C173.164,531.371 191.376,513.295 199.404,493.439 C205.53,478.292 203.057,495.247 216.137,485.511 C230.719,474.645 247.397,472.498 265.741,472.748 z" fill-opacity="0" stroke="#1A1919" stroke-width="2.829" stroke-linecap="round" stroke-linejoin="round"/>
    <path d="M305.29,304.379 C308.635,316.645 306.747,336.231 298.384,337.342 C315.027,346.843 315.887,376.285 315.887,376.285 L323.12,342.844 C323.12,342.844 310.213,308.148 305.29,304.379" fill="#FFFFFE"/>
    <path d="M305.29,304.379 C308.635,316.645 306.747,336.231 298.384,337.342 C315.027,346.843 315.887,376.285 315.887,376.285 L323.12,342.844 C323.12,342.844 310.213,308.148 305.29,304.379 z" fill-opacity="0" stroke="#1A1919" stroke-width="2.829" stroke-linecap="round" stroke-linejoin="round"/>
    <path d="M264.826,287.528 C258.25,302.779 284.85,332.767 297.829,337.901 C286.682,341.8 274.417,346.818 269.537,360.19 C274.263,345.358 239.398,299.031 239.398,299.031 C239.398,299.031 251.118,291.7 264.826,287.528" fill="#FFFFFE"/>
    <path d="M264.826,287.528 C258.25,302.779 284.85,332.767 297.829,337.901 C286.682,341.8 274.417,346.818 269.537,360.19 C274.263,345.358 239.398,299.031 239.398,299.031 C239.398,299.031 251.118,291.7 264.826,287.528 z" fill-opacity="0" stroke="#1A1919" stroke-width="2.829" stroke-linecap="round" stroke-linejoin="round"/>
    <path d="M351.996,431.954 C347.151,422.793 343.676,404.538 347.254,383.888 C344.061,372.258 337.27,348.181 322.504,338.087 C319.714,363.502 319.257,360.549 318.656,365.757 C317.131,379.415 324.952,361.225 321.267,374.781 C319.16,382.562 319.16,392.382 313.936,397.99 C310.073,402.125 301.364,414.335 298.384,418.912 C294.151,425.4 281.61,464.492 278.206,482.376 C275.551,496.403 271.069,526.557 276.602,548.965 C278.128,558.904 281.732,568.459 290.294,578.508 C296.037,583.537 322.566,579.714 337.536,572.447 C324.121,553.674 327.529,510.278 337.687,490.524 C341.457,483.226 358.718,461.825 351.996,431.954" fill="#F2B39E"/>
    <path d="M351.996,431.954 C347.151,422.793 343.676,404.538 347.254,383.888 C344.061,372.258 337.27,348.181 322.504,338.087 C319.714,363.502 319.257,360.549 318.656,365.757 C317.131,379.415 324.952,361.225 321.267,374.781 C319.16,382.562 319.16,392.382 313.936,397.99 C310.073,402.125 301.364,414.335 298.384,418.912 C294.151,425.4 281.61,464.492 278.206,482.376 C275.551,496.403 271.069,526.557 276.602,548.965 C278.128,558.904 281.732,568.459 290.294,578.508 C296.037,583.537 322.566,579.714 337.536,572.447 C324.121,553.674 327.529,510.278 337.687,490.524 C341.457,483.226 358.718,461.825 351.996,431.954 z" fill-opacity="0" stroke="#1A1919" stroke-width="2.829" stroke-linecap="round" stroke-linejoin="round"/>
    <path d="M325.1,333.575 C332.981,348.556 340.156,372.844 335.71,380.236 C323.104,365.601 318.974,363.216 316.469,360.353 C316.361,360.247 315.887,321.103 304.692,306.419 C312.337,311.081 322.094,326.08 325.1,333.575" fill="#F2B39E"/>
    <path d="M325.1,333.575 C332.981,348.556 340.156,372.844 335.71,380.236 C323.104,365.601 318.974,363.216 316.469,360.353 C316.361,360.247 315.887,321.103 304.692,306.419 C312.337,311.081 322.094,326.08 325.1,333.575 z" fill-opacity="0" stroke="#1A1919" stroke-width="2.829" stroke-linecap="round" stroke-linejoin="round"/>
    <path d="M389.961,410.069 C385.65,413.924 383.255,417.427 379.161,414.079 C372.576,408.681 381.968,388.972 388.594,386.882 C393.872,385.194 397.602,393.606 396.73,398.548 C396.068,402.287 394.424,406.1 389.961,410.069" fill="#F8D2B8"/>
    <path d="M389.961,410.069 C385.65,413.924 383.255,417.427 379.161,414.079 C372.576,408.681 381.968,388.972 388.594,386.882 C393.872,385.194 397.602,393.606 396.73,398.548 C396.068,402.287 394.424,406.1 389.961,410.069 z" fill-opacity="0" stroke="#1A1919" stroke-width="2.829" stroke-linecap="round" stroke-linejoin="round"/>
    <path d="M382.881,402.4 C378.449,405.782 379.117,407.204 373.474,405.722 C366.866,403.987 370.95,379.25 377.927,378.48 C384.562,377.726 390.322,381.104 389.402,388.541 C388.699,394.24 385.737,400.218 382.881,402.4" fill="#F8D2B8"/>
    <path d="M382.881,402.4 C378.449,405.782 379.117,407.204 373.474,405.722 C366.866,403.987 370.95,379.25 377.927,378.48 C384.562,377.726 390.322,381.104 389.402,388.541 C388.699,394.24 385.737,400.218 382.881,402.4 z" fill-opacity="0" stroke="#1A1919" stroke-width="2.829" stroke-linecap="round" stroke-linejoin="round"/>
    <path d="M370.196,399.899 C365.051,402.736 360.983,393.375 364.59,388.249 C366.908,384.926 371.292,380.043 372.211,372.607 C376.915,370.263 382.692,374.083 381.217,380.162 C379.429,387.75 376.673,396.382 370.196,399.899" fill="#F8D2B8"/>
    <path d="M370.196,399.899 C365.051,402.736 360.983,393.375 364.59,388.249 C366.908,384.926 371.292,380.043 372.211,372.607 C376.915,370.263 382.692,374.083 381.217,380.162 C379.429,387.75 376.673,396.382 370.196,399.899 z" fill-opacity="0" stroke="#1A1919" stroke-width="2.829" stroke-linecap="round" stroke-linejoin="round"/>
    <path d="M68.516,126.506 C70.343,136.283 83.442,155.806 99.632,154.183 C120.896,152.058 133.901,141.017 127.826,119.33 C122.245,99.422 86.885,112.203 74.91,114.182 C60.814,116.493 66.96,118.211 68.516,126.506" fill="#DBA491"/>
    <path d="M68.516,126.506 C70.343,136.283 83.442,155.806 99.632,154.183 C120.896,152.058 133.901,141.017 127.826,119.33 C122.245,99.422 86.885,112.203 74.91,114.182 C60.814,116.493 66.96,118.211 68.516,126.506 z" fill-opacity="0" stroke="#1A1919" stroke-width="2.829" stroke-linecap="round" stroke-linejoin="round"/>
    <path d="M70.51,132.87 C75.23,150.088 136.933,161.839 113.905,115.752 C106.743,101.419 92.84,108.576 83.634,110.176 C76.969,111.348 67.918,123.419 70.51,132.87" fill="#E1E2E0"/>
    <path d="M70.51,132.87 C75.23,150.088 136.933,161.839 113.905,115.752 C106.743,101.419 92.84,108.576 83.634,110.176 C76.969,111.348 67.918,123.419 70.51,132.87 z" fill-opacity="0" stroke="#1A1919" stroke-width="2.829" stroke-linecap="round" stroke-linejoin="round"/>
    <path d="M94.38,163.917 C80.309,148.227 60.067,109.298 55.746,104.37 C45.713,105.142 34.33,102.995 28.749,99.739 C18.005,93.477 13.283,84.94 12.119,76.059 C11.25,69.58 7.363,57.063 13.822,52.046 C19.395,47.695 18.458,33.681 25.132,33.635 C30.083,33.614 29.108,33.18 31.989,29.082 C22.153,27.77 44.544,46.002 40.893,36.217 C46.15,24.385 55.224,29.17 57.835,33.64 C63.113,42.675 78.525,50.638 78.963,63.96 C79.2,71.201 76.879,76.75 76.568,87.4 C81.739,97.013 120.712,147.136 130.227,159.125 C138.977,170.155 96.596,166.382 94.38,163.917" fill="#F8D2B8"/>
    <path d="M94.38,163.917 C80.309,148.227 60.067,109.298 55.746,104.37 C45.713,105.142 34.33,102.995 28.749,99.739 C18.005,93.477 13.283,84.94 12.119,76.059 C11.25,69.58 7.363,57.063 13.822,52.046 C19.395,47.695 18.458,33.681 25.132,33.635 C30.083,33.614 29.108,33.18 31.989,29.082 C22.153,27.77 44.544,46.002 40.893,36.217 C46.15,24.385 55.224,29.17 57.835,33.64 C63.113,42.675 78.525,50.638 78.963,63.96 C79.2,71.201 76.879,76.75 76.568,87.4 C81.739,97.013 120.712,147.136 130.227,159.125 C138.977,170.155 96.596,166.382 94.38,163.917 z" fill-opacity="0" stroke="#1A1919" stroke-width="2.829" stroke-linecap="round" stroke-linejoin="round"/>
    <g>
      <path d="M78.669,68.979 C81.057,52.271 78.809,39.598 76.961,32.522 C74.139,21.73 61.667,10.675 52.566,6.574 C44.041,2.733 34.167,0.27 26.585,4.877 C21.886,7.729 21.969,13.276 26.982,16.482 C32.626,26.563 37.605,24.949 44.503,29.518 C49.165,31.467 45.981,32.705 48.204,37.598 C39.477,46.571 40.781,67.036 44.959,75.401" fill="#F8D2B8"/>
      <path d="M78.669,68.979 C81.057,52.271 78.809,39.598 76.961,32.522 C74.139,21.73 61.667,10.675 52.566,6.574 C44.041,2.733 34.167,0.27 26.585,4.877 C21.886,7.729 21.969,13.276 26.982,16.482 C32.626,26.563 37.605,24.949 44.503,29.518 C49.165,31.467 45.981,32.705 48.204,37.598 C39.477,46.571 40.781,67.036 44.959,75.401" fill-opacity="0" stroke="#1A1919" stroke-width="2.829" stroke-linecap="round" stroke-linejoin="round"/>
    </g>
    <path d="M25.316,15.231 C35.632,18.831 40.367,20.042 46.055,26.43 C52.223,33.19 47.537,41.895 44.995,42.605 C35.553,45.227 22.539,40.117 18.655,30.737 C17.717,28.467 15.988,25.061 17.413,21.083 C18.842,17.097 21.682,15.217 25.316,15.231" fill="#F8D2B8"/>
    <path d="M25.316,15.231 C35.632,18.831 40.367,20.042 46.055,26.43 C52.223,33.19 47.537,41.895 44.995,42.605 C35.553,45.227 22.539,40.117 18.655,30.737 C17.717,28.467 15.988,25.061 17.413,21.083 C18.842,17.097 21.682,15.217 25.316,15.231 z" fill-opacity="0" stroke="#1A1919" stroke-width="2.829" stroke-linecap="round" stroke-linejoin="round"/>
    <path d="M43.876,41.939 C47.135,45.587 43.714,53.59 38.608,53.188 C33.842,52.827 8.407,47.617 8.685,40.418 C8.957,33.081 11.843,25.429 20.991,28.273 C24.127,29.245 38.648,36.094 43.876,41.939" fill="#F8D2B8"/>
    <path d="M43.876,41.939 C47.135,45.587 43.714,53.59 38.608,53.188 C33.842,52.827 8.407,47.617 8.685,40.418 C8.957,33.081 11.843,25.429 20.991,28.273 C24.127,29.245 38.648,36.094 43.876,41.939 z" fill-opacity="0" stroke="#1A1919" stroke-width="2.829" stroke-linecap="round" stroke-linejoin="round"/>
    <path d="M32.847,65.621 C25.132,66.004 1.61,60.362 4.199,51.331 C5.097,48.086 8.029,42.27 11.417,41.425 C19.328,39.465 31.149,46.937 35.626,50.551 C42.827,56.401 43.863,65.077 32.847,65.621" fill="#F8D2B8"/>
    <g>
      <path d="M32.847,65.621 C25.132,66.004 1.61,60.362 4.199,51.331 C5.097,48.086 8.029,42.27 11.417,41.425 C19.328,39.465 31.149,46.937 35.626,50.551 C42.827,56.401 43.863,65.077 32.847,65.621 z" fill-opacity="0" stroke="#1A1919" stroke-width="2.829" stroke-linecap="round" stroke-linejoin="round"/>
      <path d="M33.389,102.065 C22.585,98.199 15.428,93.522 6.37,80.453 C1.8,73.85 -0.339,66.418 3.141,59.308 C7.387,50.683 36.315,61.033 35.056,73.026 C33.389,81.164 19.199,73.876 11.985,69.625" fill="#F8D2B8"/>
      <path d="M33.389,102.065 C22.585,98.199 15.428,93.522 6.37,80.453 C1.8,73.85 -0.339,66.418 3.141,59.308 C7.387,50.683 36.315,61.033 35.056,73.026 C33.389,81.164 19.199,73.876 11.985,69.625" fill-opacity="0" stroke="#1A1919" stroke-width="2.829" stroke-linecap="round" stroke-linejoin="round"/>
    </g>
    <path d="M207.568,261.407 C194.817,264.433 172.108,260.089 172.927,290.774 C173.531,313.133 200.242,392.897 193.428,443.693 C187.583,487.375 181.438,511.834 162.566,533.943 C170.3,548.925 231.459,585.662 268.781,579.922 C280.095,566.384 291.53,552.762 296.505,539.874 C305.605,516.268 306.539,502.345 309.884,482.821 C311.931,470.87 321.579,427.645 312.671,412.044 C306.525,401.271 281.298,382.103 274.949,371.446 C263.655,352.527 261.694,342.247 255.278,321.863 C252.843,314.191 256.724,302.537 254.479,285.145 C247.148,273.888 214.225,259.837 207.568,261.407" fill="#F2B39E"/>
    <path d="M207.568,261.407 C194.817,264.433 172.108,260.089 172.927,290.774 C173.531,313.133 200.242,392.897 193.428,443.693 C187.583,487.375 181.438,511.834 162.566,533.943 C170.3,548.925 231.459,585.662 268.781,579.922 C280.095,566.384 291.53,552.762 296.505,539.874 C305.605,516.268 306.539,502.345 309.884,482.821 C311.931,470.87 321.579,427.645 312.671,412.044 C306.525,401.271 281.298,382.103 274.949,371.446 C263.655,352.527 261.694,342.247 255.278,321.863 C252.843,314.191 256.724,302.537 254.479,285.145 C247.148,273.888 214.225,259.837 207.568,261.407 z" fill-opacity="0" stroke="#1A1919" stroke-width="2.829" stroke-linecap="round" stroke-linejoin="round"/>
    <path d="M241.473,266.761 C247.421,289.181 250.133,322.111 241.406,339.61 C247.043,339.397 270.919,353.44 275.885,353.499 C266.968,339.782 258.417,300.918 257.687,292.628 C256.065,287.664 241.282,269.065 241.473,266.761" fill="#F2B39E"/>
    <path d="M241.473,266.761 C247.421,289.181 250.133,322.111 241.406,339.61 C247.043,339.397 270.919,353.44 275.885,353.499 C266.968,339.782 258.417,300.918 257.687,292.628 C256.065,287.664 241.282,269.065 241.473,266.761 z" fill-opacity="0" stroke="#1A1919" stroke-width="2.829" stroke-linecap="round" stroke-linejoin="round"/>
    <path d="M298.52,429.622 C298.46,433.957 301.169,437.484 304.594,437.513 C308.035,437.541 310.851,434.058 310.924,429.726 C310.998,425.4 308.278,421.86 304.836,421.826 C301.414,421.8 298.585,425.293 298.52,429.622" fill="#E8836E"/>
    <path d="M298.52,429.622 C298.46,433.957 301.169,437.484 304.594,437.513 C308.035,437.541 310.851,434.058 310.924,429.726 C310.998,425.4 308.278,421.86 304.836,421.826 C301.414,421.8 298.585,425.293 298.52,429.622 z" fill-opacity="0" stroke="#1A1919" stroke-width="2.829" stroke-linecap="round" stroke-linejoin="round"/>
    <path d="M290.941,482.298 C290.105,486.398 292.037,490.126 295.261,490.617 C298.492,491.106 301.773,488.184 302.614,484.079 C303.448,479.982 301.495,476.253 298.274,475.749 C295.053,475.26 291.757,478.194 290.941,482.298" fill="#E8836E"/>
    <path d="M290.941,482.298 C290.105,486.398 292.037,490.126 295.261,490.617 C298.492,491.106 301.773,488.184 302.614,484.079 C303.448,479.982 301.495,476.253 298.274,475.749 C295.053,475.26 291.757,478.194 290.941,482.298 z" fill-opacity="0" stroke="#1A1919" stroke-width="2.829" stroke-linecap="round" stroke-linejoin="round"/>
    <path d="M280.024,530.656 C278.919,534.871 280.571,538.809 283.754,539.518 C286.942,540.195 290.427,537.352 291.554,533.155 C292.675,528.953 291.001,524.988 287.806,524.311 C284.632,523.62 281.142,526.453 280.024,530.656" fill="#E8836E"/>
    <path d="M280.024,530.656 C278.919,534.871 280.571,538.809 283.754,539.518 C286.942,540.195 290.427,537.352 291.554,533.155 C292.675,528.953 291.001,524.988 287.806,524.311 C284.632,523.62 281.142,526.453 280.024,530.656 z" fill-opacity="0" stroke="#1A1919" stroke-width="2.829" stroke-linecap="round" stroke-linejoin="round"/>
    <path d="M345.615,396.171 C345.615,402.862 345.615,402.12 345.615,407.322 C339.669,406.582 320.346,403.603 320.346,403.603 L321.835,388.738 C321.835,388.738 340.765,394.998 345.615,396.171" fill="#F2B39E"/>
    <path d="M345.615,396.171 C345.615,402.862 345.615,402.12 345.615,407.322 C339.669,406.582 320.346,403.603 320.346,403.603 L321.835,388.738 C321.835,388.738 340.765,394.998 345.615,396.171 z" fill-opacity="0" stroke="#1A1919" stroke-width="2.829" stroke-linecap="round" stroke-linejoin="round"/>
    <path d="M246.143,498.955 C241.088,506.345 243.585,506.368 239.801,511.296 C231.867,507.204 215.806,500.774 191.576,494.578 C192.884,489.625 194.129,490.867 196.696,482.216 C210.769,482.385 235.044,492.621 246.143,498.955" fill="#F2B39E"/>
    <path d="M246.143,498.955 C241.088,506.345 243.585,506.368 239.801,511.296 C231.867,507.204 215.806,500.774 191.576,494.578 C192.884,489.625 194.129,490.867 196.696,482.216 C210.769,482.385 235.044,492.621 246.143,498.955 z" fill-opacity="0" stroke="#1A1919" stroke-width="2.829" stroke-linecap="round" stroke-linejoin="round"/>
    <path d="M131.413,144.011 C129.014,138.638 118.883,127.306 112.313,112.973 C119.868,129.285 83.254,135.26 62.556,125.703 C70.822,139.19 79.798,146.315 87.975,153.87 L131.413,144.011" fill="#FFFFFE"/>
    <path d="M131.413,144.011 C129.014,138.638 118.883,127.306 112.313,112.973 C119.868,129.285 83.254,135.26 62.556,125.703 C70.822,139.19 79.798,146.315 87.975,153.87 L131.413,144.011 z" fill-opacity="0" stroke="#1A1919" stroke-width="2.829" stroke-linecap="round" stroke-linejoin="round"/>
    <path d="M127.027,116.952 C134.346,129.939 177.108,206.915 203.374,247.513 C214.526,257.078 218.5,262.636 223.218,267.814 C237.452,291.551 225.433,363.417 190.505,377.884 C186.895,367.904 184.644,349.256 175.02,323.073 C162.965,294.385 91.006,169.534 64.141,134.45 C79.265,144.015 107.92,138.46 113.493,135.26 C120.291,131.365 125.438,128.099 127.027,116.952" fill="#F2B39E"/>
    <path d="M127.027,116.952 C134.346,129.939 177.108,206.915 203.374,247.513 C214.526,257.078 218.5,262.636 223.218,267.814 C237.452,291.551 225.433,363.417 190.505,377.884 C186.895,367.904 184.644,349.256 175.02,323.073 C162.965,294.385 91.006,169.534 64.141,134.45 C79.265,144.015 107.92,138.46 113.493,135.26 C120.291,131.365 125.438,128.099 127.027,116.952 z M202.567,246.721 C209.886,261.001 214.507,274.279 214.507,290.499" fill-opacity="0" stroke="#1A1919" stroke-width="2.829" stroke-linecap="round" stroke-linejoin="round"/>
    <path d="M239.967,201.542 C248.902,188.917 277.847,187.085 282.859,162.762 C292.298,163.657 309.701,181.358 313.18,191.421 C318.79,182.831 311.864,170.179 307.272,161.469 C318.191,165.464 330.367,174.466 333.633,189.29 C336.868,183.838 334.654,174.185 331.632,163.919 C349.764,176.525 349.541,212.74 349.33,230.426 C348.664,285.844 319.791,309.953 298.604,310.511 C274.44,311.148 241.776,283.114 238.451,260.489 C221.929,262.636 214.898,240.589 222.317,230.418 C225.878,234.498 226.18,235.959 232.483,241.283 C230.89,237.419 228.052,218.345 239.967,201.542" fill="#F8D2B8"/>
    <path d="M239.967,201.542 C248.902,188.917 277.847,187.085 282.859,162.762 C292.298,163.657 309.701,181.358 313.18,191.421 C318.79,182.831 311.864,170.179 307.272,161.469 C318.191,165.464 330.367,174.466 333.633,189.29 C336.868,183.838 334.654,174.185 331.632,163.919 C349.764,176.525 349.541,212.74 349.33,230.426 C348.664,285.844 319.791,309.953 298.604,310.511 C274.44,311.148 241.776,283.114 238.451,260.489 C221.929,262.636 214.898,240.589 222.317,230.418 C225.878,234.498 226.18,235.959 232.483,241.283 C230.89,237.419 228.052,218.345 239.967,201.542 z M348.215,205.156 C343.978,199.333 326.456,198.645 322.575,212.584 M295.409,205.186 C285.099,186.741 267.354,189.822 261.827,200.488 M311.823,231.138 C308.118,242.259 310.768,250.194 310.768,250.194 C310.768,250.194 320.404,245.252 322.952,250.723 C325.5,256.197 318.278,265.066 318.278,265.066" fill-opacity="0" stroke="#1A1919" stroke-width="2.829" stroke-linecap="round" stroke-linejoin="round"/>
    <path d="M284.286,265.559 C284.143,276.554 289.052,290.449 296.992,293.096 C305.097,295.794 314.636,284.27 319.768,272.976 C311.99,281.621 293.288,280.387 284.286,265.559" fill="#FFFFFE"/>
    <path d="M284.286,265.559 C284.143,276.554 289.052,290.449 296.992,293.096 C305.097,295.794 314.636,284.27 319.768,272.976 C311.99,281.621 293.288,280.387 284.286,265.559 z" fill-opacity="0" stroke="#1A1919" stroke-width="2.829" stroke-linecap="round" stroke-linejoin="round"/>
    <path d="M282.167,222.665 C277.93,223.194 278.464,232.196 283.588,232.014 C288.384,231.844 288.497,221.871 282.167,222.665" fill="#1A1919"/>
    <path d="M335.949,219.65 C332.61,219.65 325.545,221.878 324.064,231.169 C327.772,227.451 330.752,226.338 334.092,228.197" fill-opacity="0" stroke="#1A1919" stroke-width="2.829" stroke-linecap="round" stroke-linejoin="round"/>
    <path d="M329.944,387.508 C328.611,377.548 320.927,356.023 315.887,342.285 C316.591,356.557 313.946,371.666 312.1,378.598 C309.937,386.842 307.132,398.841 302.069,408.697 C317.064,400.615 323.02,396.116 329.944,387.508" fill="#F2B39E"/>
    <path d="M329.944,387.508 C328.611,377.548 320.927,356.023 315.887,342.285 C316.591,356.557 313.946,371.666 312.1,378.598 C309.937,386.842 307.132,398.841 302.069,408.697 C317.064,400.615 323.02,396.116 329.944,387.508 z" fill-opacity="0" stroke="#1A1919" stroke-width="2.829" stroke-linecap="round" stroke-linejoin="round"/>
    <path d="M249.45,362.097 C252.888,355.647 262.886,342.982 266.323,331.635 C269.339,340.212 273.404,346.622 276.01,353.687 C279.117,362.097 300.652,399.034 312.1,411.472 C291.408,410.317 254.131,376.356 249.45,362.097" fill="#F2B39E"/>
    <path d="M249.45,362.097 C252.888,355.647 262.886,342.982 266.323,331.635 C269.339,340.212 273.404,346.622 276.01,353.687 C279.117,362.097 300.652,399.034 312.1,411.472 C291.408,410.317 254.131,376.356 249.45,362.097 z" fill-opacity="0" stroke="#1A1919" stroke-width="2.829" stroke-linecap="round" stroke-linejoin="round"/>
  </g>
</svg>
